{"glyphs":{"0":{"ha":873,"x_min":136,"x_max":778,"o":"m 355 143 l 635 654 l 635 186 q 623 155 635 168 q 593 143 610 143 l 355 143 m 545 785 l 279 300 l 279 743 q 291 772 279 760 q 321 785 304 785 l 545 785 m 178 928 q 149 916 161 928 q 136 885 136 903 l 136 43 q 149 13 136 25 q 178 0 161 0 l 735 0 q 766 13 753 0 q 778 43 778 25 l 778 885 q 766 916 778 903 q 735 928 753 928 l 178 928 z "},"1":{"ha":511,"x_min":243,"x_max":564,"o":"m 286 928 q 256 916 268 928 q 243 885 243 903 l 243 828 q 256 798 243 810 q 286 785 268 785 l 378 785 q 409 772 396 785 q 421 743 421 760 l 421 43 q 434 13 421 25 q 464 0 446 0 l 522 0 q 551 13 539 0 q 564 43 564 25 l 564 885 q 551 916 564 903 q 522 928 539 928 l 286 928 z "},"2":{"ha":873,"x_min":123,"x_max":765,"o":"m 765 43 q 753 13 765 25 q 722 0 740 0 l 165 0 q 135 13 148 0 q 123 43 123 25 l 123 492 q 135 523 123 511 q 165 536 148 536 l 580 536 q 610 548 597 536 q 623 578 623 561 l 623 743 q 610 772 623 760 q 580 785 597 785 l 165 785 q 135 798 148 785 q 123 828 123 810 l 123 885 q 135 916 123 903 q 165 928 148 928 l 722 928 q 753 916 740 928 q 765 885 765 903 l 765 435 q 753 405 765 418 q 722 393 740 393 l 309 393 q 278 380 291 393 q 266 350 266 368 l 266 186 q 278 155 266 168 q 309 143 291 143 l 722 143 q 753 130 740 143 q 765 100 765 118 l 765 43 z "},"3":{"ha":873,"x_min":113,"x_max":755,"o":"m 155 928 q 125 916 138 928 q 113 885 113 903 l 113 828 q 125 798 113 810 q 155 785 138 785 l 570 785 q 600 772 587 785 q 612 743 612 760 l 612 578 q 600 548 612 561 q 570 536 587 536 l 155 536 q 125 523 138 536 q 113 492 113 511 l 113 435 q 125 405 113 418 q 155 393 138 393 l 570 393 q 600 380 587 393 q 612 350 612 368 l 612 186 q 600 155 612 168 q 570 143 587 143 l 155 143 q 125 130 138 143 q 113 100 113 118 l 113 43 q 125 13 113 25 q 155 0 138 0 l 712 0 q 743 13 730 0 q 755 43 755 25 l 755 885 q 743 916 755 903 q 712 928 730 928 l 155 928 z "},"4":{"ha":873,"x_min":117,"x_max":759,"o":"m 616 578 q 604 548 616 561 q 574 536 591 536 l 302 536 q 272 548 285 536 q 260 578 260 561 l 260 885 q 247 916 260 903 q 216 928 235 928 l 159 928 q 129 916 142 928 q 117 885 117 903 l 117 435 q 129 405 117 418 q 159 393 142 393 l 574 393 q 604 380 591 393 q 616 350 616 368 l 616 43 q 629 13 616 25 q 659 0 642 0 l 716 0 q 747 13 734 0 q 759 43 759 25 l 759 885 q 747 916 759 903 q 716 928 734 928 l 659 928 q 629 916 642 928 q 616 885 616 903 l 616 578 z "},"5":{"ha":873,"x_min":126,"x_max":768,"o":"m 768 885 q 756 916 768 903 q 726 928 743 928 l 169 928 q 138 916 151 928 q 126 885 126 903 l 126 435 q 138 405 126 418 q 169 393 151 393 l 583 393 q 613 380 601 393 q 626 350 626 368 l 626 186 q 613 155 626 168 q 583 143 601 143 l 169 143 q 138 130 151 143 q 126 100 126 118 l 126 43 q 138 13 126 25 q 169 0 151 0 l 726 0 q 756 13 743 0 q 768 43 768 25 l 768 492 q 756 523 768 511 q 726 536 743 536 l 312 536 q 281 548 294 536 q 269 578 269 561 l 269 743 q 281 772 269 760 q 312 785 294 785 l 726 785 q 756 798 743 785 q 768 828 768 810 l 768 885 z "},"6":{"ha":873,"x_min":139,"x_max":781,"o":"m 639 186 q 626 155 639 168 q 596 143 614 143 l 325 143 q 294 155 307 143 q 282 186 282 168 l 282 350 q 294 380 282 368 q 325 393 307 393 l 596 393 q 626 380 614 393 q 639 350 639 368 l 639 186 m 781 885 q 769 916 781 903 q 739 928 756 928 l 174 928 q 149 918 159 928 q 139 893 139 907 l 139 35 q 149 10 139 20 q 174 0 159 0 l 739 0 q 769 12 756 0 q 781 43 781 25 l 781 492 q 769 523 781 511 q 739 536 756 536 l 325 536 q 294 548 307 536 q 282 578 282 561 l 282 743 q 294 772 282 760 q 325 785 307 785 l 739 785 q 769 798 756 785 q 781 828 781 810 l 781 885 z "},"7":{"ha":873,"x_min":83,"x_max":726,"o":"m 126 928 q 96 916 109 928 q 83 885 83 903 l 83 828 q 96 798 83 810 q 126 785 109 785 l 541 785 q 570 772 558 785 q 583 743 583 760 l 583 43 q 595 13 583 25 q 626 0 608 0 l 683 0 q 713 13 701 0 q 726 43 726 25 l 726 885 q 713 916 726 903 q 683 928 701 928 l 126 928 z "},"8":{"ha":873,"x_min":136,"x_max":778,"o":"m 321 536 q 291 548 304 536 q 279 578 279 561 l 279 743 q 291 772 279 760 q 321 785 304 785 l 593 785 q 623 772 610 785 q 635 743 635 760 l 635 578 q 623 548 635 561 q 593 536 610 536 l 321 536 m 321 143 q 291 155 304 143 q 279 186 279 168 l 279 350 q 291 380 279 368 q 321 393 304 393 l 593 393 q 623 380 610 393 q 635 350 635 368 l 635 186 q 623 155 635 168 q 593 143 610 143 l 321 143 m 178 928 q 149 916 161 928 q 136 885 136 903 l 136 43 q 149 13 136 25 q 178 0 161 0 l 735 0 q 766 13 753 0 q 778 43 778 25 l 778 885 q 766 916 778 903 q 735 928 753 928 l 178 928 z "},"9":{"ha":873,"x_min":117,"x_max":759,"o":"m 302 536 q 272 548 285 536 q 260 578 260 561 l 260 743 q 272 772 260 760 q 302 785 285 785 l 574 785 q 604 772 591 785 q 616 743 616 760 l 616 578 q 604 548 616 561 q 574 536 591 536 l 302 536 m 159 928 q 130 916 142 928 q 117 885 117 903 l 117 435 q 130 405 117 418 q 159 393 142 393 l 574 393 q 604 380 591 393 q 616 350 616 368 l 616 43 q 629 13 616 25 q 659 0 642 0 l 716 0 q 747 13 734 0 q 759 43 759 25 l 759 885 q 747 916 759 903 q 716 928 734 928 l 159 928 z "},"\u0000":{"ha":0,"x_min":0,"x_max":0,"o":""}," ":{"ha":345,"x_min":0,"x_max":0,"o":""},"!":{"ha":337,"x_min":203,"x_max":346,"o":"m 237 143 q 213 133 223 143 q 203 108 203 123 l 203 35 q 213 10 203 20 q 237 0 223 0 l 311 0 q 336 10 326 0 q 346 35 346 20 l 346 108 q 336 133 346 123 q 311 143 326 143 l 237 143 m 237 928 q 213 918 223 928 q 203 893 203 907 l 203 249 q 213 224 203 235 q 237 214 223 214 l 311 214 q 336 224 326 214 q 346 249 346 235 l 346 893 q 336 918 346 907 q 311 928 326 928 l 237 928 z "},"\"":{"ha":439,"x_min":142,"x_max":420,"o":"m 176 972 q 152 962 162 972 q 142 938 142 952 l 142 722 q 152 697 142 707 q 176 687 162 687 l 221 687 q 245 697 235 687 q 256 722 256 707 l 256 938 q 245 962 256 952 q 221 972 235 972 l 176 972 m 334 972 q 309 962 319 972 q 299 938 299 952 l 299 722 q 309 697 299 707 q 334 687 319 687 l 385 687 q 410 697 400 687 q 420 722 420 707 l 420 938 q 410 962 420 952 q 385 972 400 972 l 334 972 z "},"#":{"ha":947,"x_min":51,"x_max":862,"o":"m 536 391 l 391 391 l 406 536 l 550 536 l 536 391 m 827 536 q 852 547 842 536 q 862 571 862 557 l 862 644 q 852 669 862 659 q 827 680 842 680 l 707 680 l 729 893 q 719 918 729 907 q 694 928 709 928 l 621 928 q 596 918 606 928 q 586 893 586 907 l 564 680 l 420 680 l 441 893 q 431 918 441 907 q 407 928 421 928 l 334 928 q 309 918 319 928 q 298 893 298 907 l 277 680 l 85 680 q 61 669 71 680 q 51 644 51 659 l 51 571 q 61 547 51 557 q 85 536 71 536 l 262 536 l 248 391 l 85 391 q 61 381 71 391 q 51 357 51 371 l 51 283 q 61 259 51 269 q 85 249 71 249 l 233 249 l 212 35 q 222 10 212 20 q 246 0 232 0 l 319 0 q 345 10 334 0 q 355 35 355 20 l 376 249 l 521 249 l 499 35 q 509 10 499 20 q 534 0 519 0 l 608 0 q 632 10 622 0 q 642 35 642 20 l 664 249 l 827 249 q 852 259 842 249 q 862 283 862 269 l 862 357 q 852 381 862 371 q 827 391 842 391 l 678 391 l 693 536 l 827 536 z "},"$":{"ha":862,"x_min":94,"x_max":736,"o":"m 344 536 l 280 536 q 250 548 262 536 q 237 578 237 561 l 237 743 q 250 773 237 760 q 280 785 262 785 l 344 785 l 344 536 m 551 393 q 581 380 569 393 q 594 350 594 368 l 594 186 q 581 155 594 168 q 551 143 569 143 l 487 143 l 487 393 l 551 393 m 694 785 q 724 798 711 785 q 736 828 736 810 l 736 886 q 724 916 736 903 q 694 928 711 928 l 487 928 l 487 1072 q 477 1097 487 1086 q 452 1107 467 1107 l 379 1107 q 354 1097 364 1107 q 344 1072 344 1086 l 344 928 l 137 928 q 107 916 119 928 q 94 886 94 903 l 94 435 q 107 406 94 418 q 137 393 119 393 l 344 393 l 344 143 l 137 143 q 107 130 119 143 q 94 100 94 118 l 94 43 q 107 13 94 25 q 137 0 119 0 l 344 0 l 344 -144 q 354 -168 344 -158 q 379 -178 364 -178 l 452 -178 q 477 -168 467 -178 q 487 -144 487 -158 l 487 0 l 694 0 q 724 13 711 0 q 736 43 736 25 l 736 493 q 724 523 736 511 q 694 536 711 536 l 487 536 l 487 785 l 694 785 z "},"%":{"ha":637,"x_min":15,"x_max":592,"o":"m 411 932 q 384 930 397 937 q 368 909 372 923 l 110 66 q 113 40 106 53 q 133 23 119 27 l 203 1 q 229 4 217 -3 q 246 24 242 11 l 504 867 q 501 894 508 881 q 481 911 494 907 l 411 932 m 484 462 q 460 452 470 462 q 450 427 450 441 l 450 353 q 460 329 450 339 q 484 319 470 319 l 557 319 q 582 329 572 319 q 592 353 592 339 l 592 427 q 582 452 592 441 q 557 462 572 462 l 484 462 m 50 608 q 25 598 35 608 q 15 574 15 588 l 15 500 q 25 476 15 486 q 50 466 35 466 l 123 466 q 148 476 138 466 q 158 500 158 486 l 158 574 q 148 598 158 588 q 123 608 138 608 l 50 608 z "},"&":{"ha":900,"x_min":95,"x_max":844,"o":"m 273 143 q 248 153 258 143 q 238 178 238 163 l 238 357 q 248 382 238 372 q 273 393 258 393 l 524 393 q 549 382 538 393 q 559 357 559 372 l 559 178 q 549 153 559 163 q 524 143 538 143 l 273 143 m 737 536 q 712 546 723 536 q 702 571 702 556 l 702 678 q 691 703 702 693 q 666 714 681 714 l 595 714 q 570 703 580 714 q 559 678 559 693 l 559 571 q 549 546 559 556 q 524 536 538 536 l 273 536 q 248 546 258 536 q 238 571 238 556 l 238 749 q 248 775 238 764 q 273 785 258 785 l 488 785 q 513 795 503 785 q 524 821 524 806 l 524 892 q 513 918 524 907 q 488 928 503 928 l 131 928 q 105 918 116 928 q 95 892 95 907 l 95 36 q 105 10 95 21 q 131 0 116 0 l 666 0 q 691 10 681 0 q 702 36 702 21 l 702 357 q 712 382 702 372 q 737 393 723 393 l 809 393 q 834 403 823 393 q 844 429 844 414 l 844 500 q 834 525 844 515 q 809 536 823 536 l 737 536 z "},"'":{"ha":276,"x_min":153,"x_max":267,"o":"m 187 972 q 163 962 173 972 q 153 937 153 951 l 153 721 q 163 696 153 707 q 187 686 173 686 l 232 686 q 256 696 246 686 q 267 721 267 707 l 267 937 q 256 962 267 951 q 232 972 246 972 l 187 972 z "},"(":{"ha":668,"x_min":209,"x_max":566,"o":"m 566 1102 q 553 1133 566 1120 q 523 1145 541 1145 l 252 1145 q 222 1133 234 1145 q 209 1102 209 1120 l 209 -169 q 222 -199 209 -186 q 252 -212 234 -212 l 523 -212 q 553 -199 541 -212 q 566 -169 566 -186 l 566 -112 q 553 -81 566 -94 q 523 -68 541 -68 l 395 -68 q 364 -56 377 -68 q 352 -26 352 -43 l 352 959 q 364 989 352 977 q 395 1002 377 1002 l 523 1002 q 553 1015 541 1002 q 566 1045 566 1027 l 566 1102 z "},")":{"ha":688,"x_min":83,"x_max":439,"o":"m 83 1102 q 95 1133 83 1120 q 125 1145 108 1145 l 397 1145 q 427 1133 414 1145 q 439 1102 439 1120 l 439 -169 q 427 -199 439 -186 q 397 -212 414 -212 l 125 -212 q 95 -199 108 -212 q 83 -169 83 -186 l 83 -112 q 95 -81 83 -94 q 125 -68 108 -68 l 254 -68 q 284 -56 272 -68 q 297 -26 297 -43 l 297 959 q 284 989 297 977 q 254 1002 272 1002 l 125 1002 q 95 1015 108 1002 q 83 1045 83 1027 l 83 1102 z "},"*":{"ha":539,"x_min":120,"x_max":406,"o":"m 406 854 q 388 871 406 871 l 328 871 l 357 925 q 350 949 365 940 l 313 968 q 290 962 298 977 l 263 912 l 236 962 q 212 968 228 977 l 176 949 q 169 925 161 940 l 199 871 l 138 871 q 120 854 120 871 l 120 812 q 138 795 120 795 l 199 795 l 169 742 q 176 718 161 726 l 212 698 q 236 705 228 690 l 263 754 l 290 705 q 313 698 298 690 l 350 718 q 357 742 365 726 l 327 795 l 389 795 q 406 812 406 795 l 406 854 z "},"+":{"ha":778,"x_min":109,"x_max":645,"o":"m 645 515 q 635 540 645 530 q 610 550 624 550 l 144 550 q 119 540 130 550 q 109 515 109 530 l 109 442 q 119 418 109 428 q 144 407 130 407 l 610 407 q 635 418 624 407 q 645 442 645 428 l 645 515 m 414 211 q 438 221 428 211 q 448 245 448 231 l 448 711 q 438 736 448 726 q 414 747 428 747 l 340 747 q 316 736 326 747 q 305 711 305 726 l 305 245 q 316 221 305 231 q 340 211 326 211 l 414 211 z "},",":{"ha":456,"x_min":143,"x_max":286,"o":"m 178 143 q 153 133 163 143 q 143 109 143 123 l 143 -108 q 153 -132 143 -122 q 178 -142 163 -142 l 251 -142 q 276 -132 266 -142 q 286 -108 286 -122 l 286 109 q 276 133 286 123 q 251 143 266 143 l 178 143 z "},"-":{"ha":802,"x_min":119,"x_max":655,"o":"m 655 515 q 645 540 655 530 q 620 550 634 550 l 154 550 q 130 540 140 550 q 119 515 119 530 l 119 441 q 130 417 119 427 q 154 407 140 407 l 620 407 q 645 417 634 407 q 655 441 655 427 l 655 515 z "},".":{"ha":433,"x_min":131,"x_max":274,"o":"m 165 143 q 141 133 151 143 q 131 108 131 123 l 131 35 q 141 10 131 20 q 165 0 151 0 l 239 0 q 264 10 254 0 q 274 35 274 20 l 274 108 q 264 133 274 123 q 239 143 254 143 l 165 143 z "},"/":{"ha":661,"x_min":117,"x_max":607,"o":"m 511 1061 q 484 1059 496 1065 q 467 1038 471 1053 l 122 -35 q 124 -61 117 -48 q 144 -78 131 -74 l 214 -100 q 241 -98 228 -105 q 258 -78 254 -92 l 603 995 q 600 1021 607 1008 q 581 1039 594 1034 l 511 1061 z "},":":{"ha":300,"x_min":62,"x_max":205,"o":"m 97 143 q 73 133 83 143 q 62 108 62 123 l 62 35 q 73 10 62 20 q 97 0 83 0 l 170 0 q 195 10 185 0 q 205 35 205 20 l 205 108 q 195 133 205 123 q 170 143 185 143 l 97 143 m 97 536 q 73 526 83 536 q 62 500 62 515 l 62 427 q 73 403 62 413 q 97 393 83 393 l 170 393 q 195 403 185 393 q 205 427 205 413 l 205 500 q 195 526 205 515 q 170 536 185 536 l 97 536 z "},";":{"ha":313,"x_min":71,"x_max":214,"o":"m 106 536 q 81 526 92 536 q 71 501 71 515 l 71 428 q 81 404 71 414 q 106 393 92 393 l 179 393 q 204 404 194 393 q 214 428 214 414 l 214 501 q 204 526 214 515 q 179 536 194 536 l 106 536 m 106 143 q 81 133 92 143 q 71 109 71 123 l 71 -108 q 81 -132 71 -122 q 106 -142 92 -142 l 179 -142 q 204 -132 194 -142 q 214 -108 214 -122 l 214 109 q 204 133 214 123 q 179 143 194 143 l 106 143 z "},"<":{"ha":478,"x_min":7,"x_max":399,"o":"m 347 703 q 317 715 334 715 q 286 703 299 715 l 20 436 q 7 406 7 424 q 19 376 7 388 l 286 121 q 315 109 298 109 q 346 121 333 109 l 387 161 q 399 191 399 174 q 387 221 399 209 l 221 374 q 209 404 209 387 q 222 435 209 422 l 387 602 q 399 631 399 614 q 387 662 399 649 l 347 703 z "},"=":{"ha":674,"x_min":58,"x_max":594,"o":"m 93 667 q 68 656 79 667 q 58 632 58 646 l 58 559 q 68 534 58 545 q 93 524 79 524 l 559 524 q 584 534 573 524 q 594 559 594 545 l 594 632 q 584 656 594 646 q 559 667 573 667 l 93 667 m 93 453 q 68 443 79 453 q 58 418 58 433 l 58 345 q 68 320 58 330 q 93 310 79 310 l 559 310 q 584 320 573 310 q 594 345 594 330 l 594 418 q 584 443 594 433 q 559 453 573 453 l 93 453 z "},">":{"ha":482,"x_min":47,"x_max":440,"o":"m 100 701 q 130 714 113 714 q 160 702 148 714 l 427 435 q 440 405 440 422 q 428 374 440 387 l 161 120 q 132 107 149 107 q 101 119 114 107 l 60 159 q 47 190 47 172 q 60 220 47 208 l 226 372 q 238 403 238 385 q 225 433 238 420 l 60 600 q 47 630 47 612 q 60 661 47 648 l 100 701 z "},"?":{"ha":646,"x_min":25,"x_max":532,"o":"m 203 143 q 178 133 189 143 q 168 108 168 123 l 168 35 q 178 10 168 20 q 203 0 189 0 l 276 0 q 300 10 290 0 q 311 35 311 20 l 311 108 q 300 133 311 123 q 276 143 290 143 l 203 143 m 68 928 q 37 916 50 928 q 25 885 25 903 l 25 828 q 37 798 25 810 q 68 785 50 785 l 347 785 q 376 772 364 785 q 389 743 389 760 l 389 578 q 376 548 389 561 q 347 536 364 536 l 211 536 q 180 523 193 536 q 168 492 168 511 l 168 257 q 180 227 168 239 q 211 214 193 214 l 268 214 q 298 227 286 214 q 311 257 311 239 l 311 350 q 323 380 311 368 q 353 393 336 393 l 489 393 q 519 405 507 393 q 532 435 532 418 l 532 885 q 519 916 532 903 q 489 928 507 928 l 68 928 z "},"@":{"ha":1126,"x_min":109,"x_max":1002,"o":"m 466 464 q 477 489 466 479 q 502 500 487 500 l 573 500 q 598 489 588 500 q 609 464 609 479 l 609 429 q 598 403 609 414 q 573 393 588 393 l 502 393 q 477 403 487 393 q 466 429 466 414 l 466 464 m 145 892 q 119 882 130 892 q 109 857 109 871 l 109 36 q 119 10 109 21 q 145 0 130 0 l 859 0 q 884 10 873 0 q 895 36 895 21 l 895 107 q 884 132 895 122 q 859 143 873 143 l 288 143 q 262 153 273 143 q 252 178 252 163 l 252 714 q 262 739 252 728 q 288 749 273 749 l 823 749 q 848 739 838 749 q 859 714 859 728 l 859 429 q 848 403 859 414 q 823 393 838 393 l 787 393 q 762 403 772 393 q 751 429 751 414 l 751 607 q 741 632 751 622 q 716 642 731 642 l 395 642 q 370 632 380 642 q 359 607 359 622 l 359 286 q 370 260 359 271 q 395 250 380 250 l 966 250 q 991 260 981 250 q 1002 286 1002 271 l 1002 857 q 991 882 1002 871 q 966 892 981 892 l 145 892 z "},"A":{"ha":857,"x_min":83,"x_max":726,"o":"m 269 536 q 239 548 252 536 q 227 578 227 561 l 227 743 q 239 772 227 760 q 269 785 252 785 l 541 785 q 570 772 558 785 q 583 743 583 760 l 583 578 q 570 548 583 561 q 541 536 558 536 l 269 536 m 126 928 q 96 916 109 928 q 83 885 83 903 l 83 43 q 96 13 83 25 q 126 0 109 0 l 183 0 q 214 13 201 0 q 227 43 227 25 l 227 350 q 239 380 227 368 q 269 393 252 393 l 541 393 q 570 380 558 393 q 583 350 583 368 l 583 43 q 595 13 583 25 q 626 0 608 0 l 683 0 q 713 13 701 0 q 726 43 726 25 l 726 885 q 713 916 726 903 q 683 928 701 928 l 126 928 z "},"B":{"ha":854,"x_min":81,"x_max":724,"o":"m 267 536 q 237 548 250 536 q 224 578 224 561 l 224 743 q 237 772 224 760 q 267 785 250 785 l 538 785 q 568 772 556 785 q 581 743 581 760 l 581 578 q 568 548 581 561 q 538 536 556 536 l 267 536 m 267 143 q 237 155 250 143 q 224 186 224 168 l 224 350 q 237 380 224 368 q 267 393 250 393 l 538 393 q 568 380 556 393 q 581 350 581 368 l 581 186 q 568 155 581 168 q 538 143 556 143 l 267 143 m 124 928 q 94 916 106 928 q 81 885 81 903 l 81 43 q 94 13 81 25 q 124 0 106 0 l 681 0 q 711 13 699 0 q 724 43 724 25 l 724 885 q 711 916 724 903 q 681 928 699 928 l 124 928 z "},"C":{"ha":789,"x_min":81,"x_max":724,"o":"m 724 885 q 711 916 724 903 q 681 928 699 928 l 124 928 q 94 916 106 928 q 81 885 81 903 l 81 43 q 94 13 81 25 q 124 0 106 0 l 681 0 q 711 13 699 0 q 724 43 724 25 l 724 100 q 711 130 724 118 q 681 143 699 143 l 267 143 q 237 155 250 143 q 224 186 224 168 l 224 743 q 237 772 224 760 q 267 785 250 785 l 681 785 q 711 798 699 785 q 724 828 724 810 l 724 885 z "},"D":{"ha":855,"x_min":81,"x_max":724,"o":"m 338 0 q 308 12 321 0 q 296 43 296 25 l 296 100 q 308 130 296 118 q 338 143 321 143 l 538 143 q 568 155 556 143 q 581 186 581 168 l 581 743 q 568 772 581 760 q 538 785 556 785 l 267 785 q 237 772 250 785 q 224 743 224 760 l 224 43 q 212 12 224 25 q 181 0 199 0 l 124 0 q 94 12 106 0 q 81 43 81 25 l 81 885 q 94 916 81 903 q 124 928 106 928 l 681 928 q 711 916 699 928 q 724 885 724 903 l 724 43 q 711 12 724 25 q 681 0 699 0 l 338 0 z "},"E":{"ha":786,"x_min":81,"x_max":724,"o":"m 724 885 q 711 916 724 903 q 681 928 699 928 l 124 928 q 94 916 106 928 q 81 885 81 903 l 81 43 q 94 13 81 25 q 124 0 106 0 l 681 0 q 711 13 699 0 q 724 43 724 25 l 724 100 q 711 130 724 118 q 681 143 699 143 l 267 143 q 237 155 250 143 q 224 186 224 168 l 224 350 q 237 380 224 368 q 267 393 250 393 l 574 393 q 604 405 592 393 q 617 435 617 418 l 617 492 q 604 523 617 511 q 574 536 592 536 l 267 536 q 237 548 250 536 q 224 578 224 561 l 224 743 q 237 772 224 760 q 267 785 250 785 l 681 785 q 711 798 699 785 q 724 828 724 810 l 724 885 z "},"F":{"ha":765,"x_min":83,"x_max":726,"o":"m 726 885 q 713 916 726 903 q 683 928 701 928 l 126 928 q 96 916 109 928 q 83 885 83 903 l 83 43 q 96 13 83 25 q 126 0 109 0 l 183 0 q 214 13 201 0 q 227 43 227 25 l 227 350 q 239 380 227 368 q 269 393 252 393 l 576 393 q 606 405 594 393 q 619 435 619 418 l 619 492 q 606 523 619 511 q 576 536 594 536 l 269 536 q 239 548 252 536 q 227 578 227 561 l 227 743 q 239 772 227 760 q 269 785 252 785 l 683 785 q 713 798 701 785 q 726 828 726 810 l 726 885 z "},"G":{"ha":821,"x_min":81,"x_max":724,"o":"m 224 743 q 237 772 224 760 q 267 785 250 785 l 681 785 q 711 798 699 785 q 724 828 724 810 l 724 885 q 711 916 724 903 q 681 928 699 928 l 124 928 q 94 916 106 928 q 81 885 81 903 l 81 43 q 94 13 81 25 q 124 0 106 0 l 681 0 q 711 13 699 0 q 724 43 724 25 l 724 492 q 711 523 724 511 q 681 536 699 536 l 446 536 q 415 523 428 536 q 403 492 403 511 l 403 435 q 415 405 403 418 q 446 393 428 393 l 538 393 q 568 380 556 393 q 581 350 581 368 l 581 186 q 568 155 581 168 q 538 143 556 143 l 267 143 q 237 155 250 143 q 224 186 224 168 l 224 743 z "},"H":{"ha":858,"x_min":84,"x_max":726,"o":"m 584 578 q 571 548 584 561 q 541 536 559 536 l 270 536 q 239 548 252 536 q 227 578 227 561 l 227 885 q 214 916 227 903 q 184 928 202 928 l 127 928 q 96 916 109 928 q 84 885 84 903 l 84 43 q 96 13 84 25 q 127 0 109 0 l 184 0 q 214 13 202 0 q 227 43 227 25 l 227 350 q 239 380 227 368 q 270 393 252 393 l 541 393 q 571 380 559 393 q 584 350 584 368 l 584 43 q 596 13 584 25 q 627 0 609 0 l 684 0 q 714 13 701 0 q 726 43 726 25 l 726 885 q 714 916 726 903 q 684 928 701 928 l 627 928 q 596 916 609 928 q 584 885 584 903 l 584 578 z "},"I":{"ha":359,"x_min":85,"x_max":228,"o":"m 119 928 q 95 918 105 928 q 85 893 85 907 l 85 35 q 95 10 85 20 q 119 0 105 0 l 193 0 q 218 10 208 0 q 228 35 228 20 l 228 893 q 218 918 228 907 q 193 928 208 928 l 119 928 z "},"J":{"ha":543,"x_min":-16,"x_max":371,"o":"m 229 186 q 216 155 229 168 q 186 143 203 143 l 26 143 q -4 130 9 143 q -16 100 -16 118 l -16 43 q -4 13 -16 25 q 26 0 9 0 l 328 0 q 359 13 346 0 q 371 43 371 25 l 371 885 q 359 916 371 903 q 328 928 346 928 l 271 928 q 241 916 254 928 q 229 885 229 903 l 229 186 z "},"K":{"ha":810,"x_min":84,"x_max":752,"o":"m 678 922 q 646 926 663 931 q 620 907 629 922 l 403 557 q 366 536 390 536 l 270 536 q 239 548 252 536 q 227 578 227 561 l 227 885 q 214 916 227 903 q 184 928 202 928 l 127 928 q 97 916 109 928 q 84 885 84 903 l 84 43 q 97 13 84 25 q 127 0 109 0 l 184 0 q 214 13 202 0 q 227 43 227 25 l 227 350 q 239 380 227 368 q 270 393 252 393 l 368 393 q 406 372 393 393 l 620 22 q 646 1 629 6 q 678 6 663 -3 l 728 35 q 747 60 743 43 q 743 93 752 77 l 528 445 q 528 488 515 467 l 743 836 q 747 868 752 850 q 728 894 743 885 l 678 922 z "},"L":{"ha":776,"x_min":84,"x_max":726,"o":"m 227 885 q 214 916 227 903 q 184 928 202 928 l 127 928 q 97 916 109 928 q 84 885 84 903 l 84 43 q 97 13 84 25 q 127 0 109 0 l 684 0 q 714 13 701 0 q 726 43 726 25 l 726 100 q 714 130 726 118 q 684 143 701 143 l 270 143 q 239 155 252 143 q 227 186 227 168 l 227 885 z "},"M":{"ha":987,"x_min":84,"x_max":869,"o":"m 127 928 q 96 916 109 928 q 84 885 84 903 l 84 43 q 96 13 84 25 q 127 0 109 0 l 184 0 q 214 13 202 0 q 227 43 227 25 l 227 743 q 239 772 227 760 q 270 785 252 785 l 363 785 q 393 772 380 785 q 406 743 406 760 l 406 400 q 418 370 406 382 q 448 357 431 357 l 505 357 q 536 370 523 357 q 548 400 548 382 l 548 743 q 561 772 548 760 q 591 785 573 785 l 684 785 q 714 772 701 785 q 726 743 726 760 l 726 43 q 739 13 726 25 q 770 0 751 0 l 827 0 q 857 13 844 0 q 869 43 869 25 l 869 885 q 857 916 869 903 q 827 928 844 928 l 127 928 z "},"N":{"ha":858,"x_min":84,"x_max":726,"o":"m 127 928 q 97 916 109 928 q 84 885 84 903 l 84 43 q 97 13 84 25 q 127 0 109 0 l 184 0 q 214 13 202 0 q 227 43 227 25 l 227 743 q 239 772 227 760 q 270 785 252 785 l 541 785 q 571 772 559 785 q 584 743 584 760 l 584 43 q 596 13 584 25 q 627 0 609 0 l 684 0 q 714 13 701 0 q 726 43 726 25 l 726 885 q 714 916 726 903 q 684 928 701 928 l 127 928 z "},"O":{"ha":855,"x_min":81,"x_max":724,"o":"m 267 143 q 237 155 250 143 q 224 186 224 168 l 224 743 q 237 772 224 760 q 267 785 250 785 l 538 785 q 568 772 556 785 q 581 743 581 760 l 581 186 q 568 155 581 168 q 538 143 556 143 l 267 143 m 124 928 q 94 916 106 928 q 81 885 81 903 l 81 43 q 94 13 81 25 q 124 0 106 0 l 681 0 q 711 13 699 0 q 724 43 724 25 l 724 885 q 711 916 724 903 q 681 928 699 928 l 124 928 z "},"P":{"ha":823,"x_min":83,"x_max":726,"o":"m 269 536 q 239 548 252 536 q 227 578 227 561 l 227 743 q 239 772 227 760 q 269 785 252 785 l 541 785 q 570 772 558 785 q 583 743 583 760 l 583 578 q 570 548 583 561 q 541 536 558 536 l 269 536 m 126 928 q 96 916 109 928 q 83 885 83 903 l 83 43 q 96 13 83 25 q 126 0 109 0 l 183 0 q 214 13 201 0 q 227 43 227 25 l 227 350 q 239 380 227 368 q 269 393 252 393 l 683 393 q 713 405 701 393 q 726 435 726 418 l 726 885 q 713 916 726 903 q 683 928 701 928 l 126 928 z "},"Q":{"ha":842,"x_min":81,"x_max":724,"o":"m 267 142 q 237 155 250 142 q 224 185 224 168 l 224 742 q 237 772 224 760 q 267 785 250 785 l 538 785 q 568 772 556 785 q 581 742 581 760 l 581 185 q 568 155 581 168 q 538 142 556 142 l 267 142 m 124 928 q 94 916 106 928 q 81 885 81 903 l 81 43 q 94 12 81 25 q 124 0 106 0 l 538 0 q 568 -13 556 0 q 581 -43 581 -25 l 581 -100 q 593 -130 581 -118 q 624 -143 606 -143 l 681 -143 q 711 -130 699 -143 q 724 -100 724 -118 l 724 885 q 711 916 724 903 q 681 928 699 928 l 124 928 z "},"R":{"ha":858,"x_min":84,"x_max":726,"o":"m 127 928 q 96 916 109 928 q 84 885 84 903 l 84 43 q 96 13 84 25 q 127 0 109 0 l 184 0 q 214 13 202 0 q 227 43 227 25 l 227 743 q 239 772 227 760 q 270 785 252 785 l 541 785 q 571 772 559 785 q 584 743 584 760 l 584 578 q 571 548 584 561 q 541 536 559 536 l 377 536 q 347 523 359 536 q 334 492 334 511 l 334 435 q 347 405 334 418 q 377 393 359 393 l 541 393 q 571 380 559 393 q 584 350 584 368 l 584 43 q 596 13 584 25 q 627 0 609 0 l 684 0 q 714 13 701 0 q 726 43 726 25 l 726 885 q 714 916 726 903 q 684 928 701 928 l 127 928 z "},"S":{"ha":804,"x_min":65,"x_max":707,"o":"m 707 885 q 695 916 707 903 q 665 928 682 928 l 108 928 q 77 916 90 928 q 65 885 65 903 l 65 435 q 77 405 65 418 q 108 393 90 393 l 522 393 q 552 380 540 393 q 565 350 565 368 l 565 186 q 552 155 565 168 q 522 143 540 143 l 108 143 q 77 130 90 143 q 65 100 65 118 l 65 43 q 77 13 65 25 q 108 0 90 0 l 665 0 q 695 13 682 0 q 707 43 707 25 l 707 492 q 695 523 707 511 q 665 536 682 536 l 251 536 q 220 548 233 536 q 208 578 208 561 l 208 743 q 220 772 208 760 q 251 785 233 785 l 665 785 q 695 798 682 785 q 707 828 707 810 l 707 885 z "},"T":{"ha":644,"x_min":-16,"x_max":626,"o":"m 626 885 q 614 916 626 903 q 583 928 601 928 l 26 928 q -4 916 9 928 q -16 885 -16 903 l -16 828 q -4 798 -16 810 q 26 785 9 785 l 191 785 q 221 772 208 785 q 233 743 233 760 l 233 43 q 246 13 233 25 q 277 0 258 0 l 334 0 q 363 13 351 0 q 376 43 376 25 l 376 743 q 389 772 376 760 q 419 785 401 785 l 583 785 q 614 798 601 785 q 626 828 626 810 l 626 885 z "},"U":{"ha":858,"x_min":84,"x_max":726,"o":"m 584 186 q 571 155 584 168 q 541 143 559 143 l 270 143 q 239 155 252 143 q 227 186 227 168 l 227 885 q 214 916 227 903 q 184 928 202 928 l 127 928 q 96 916 109 928 q 84 885 84 903 l 84 43 q 96 13 84 25 q 127 0 109 0 l 684 0 q 714 13 701 0 q 726 43 726 25 l 726 885 q 714 916 726 903 q 684 928 701 928 l 627 928 q 596 916 609 928 q 584 885 584 903 l 584 186 z "},"V":{"ha":707,"x_min":24,"x_max":638,"o":"m 634 865 q 627 898 638 883 q 598 916 617 913 l 539 927 q 505 920 520 930 q 486 893 489 911 l 347 210 q 325 192 343 192 q 302 210 306 192 l 163 893 q 144 920 160 911 q 111 927 129 930 l 64 914 q 35 896 45 911 q 28 863 24 881 l 184 35 q 228 0 191 0 l 421 0 q 466 35 458 0 l 634 865 z "},"W":{"ha":987,"x_min":84,"x_max":869,"o":"m 827 0 q 857 12 844 0 q 869 43 869 25 l 869 885 q 857 916 869 903 q 827 928 844 928 l 770 928 q 739 916 751 928 q 726 885 726 903 l 726 186 q 714 155 726 168 q 684 143 701 143 l 591 143 q 561 155 573 143 q 548 186 548 168 l 548 528 q 536 559 548 546 q 505 571 523 571 l 448 571 q 418 559 431 571 q 406 528 406 546 l 406 186 q 393 155 406 168 q 363 143 380 143 l 270 143 q 239 155 252 143 q 227 186 227 168 l 227 885 q 214 916 227 903 q 184 928 202 928 l 127 928 q 97 916 109 928 q 84 885 84 903 l 84 43 q 97 12 84 25 q 127 0 109 0 l 827 0 z "},"X":{"ha":708,"x_min":26,"x_max":642,"o":"m 570 905 q 537 911 555 915 q 511 891 520 906 l 353 626 q 334 616 347 616 q 316 626 322 616 l 158 891 q 132 911 149 906 q 99 905 114 915 l 50 876 q 31 849 35 867 q 35 817 26 832 l 244 467 q 244 445 251 456 l 35 95 q 31 62 26 80 q 50 36 35 45 l 99 6 q 132 1 114 -3 q 158 21 149 5 l 316 286 q 334 296 322 296 q 353 286 347 296 l 511 21 q 537 1 520 5 q 570 6 555 -3 l 618 36 q 638 62 633 45 q 633 95 642 80 l 425 445 q 425 467 418 456 l 633 817 q 638 849 642 832 q 618 876 633 867 l 570 905 z "},"Y":{"ha":727,"x_min":45,"x_max":630,"o":"m 488 578 q 475 548 488 561 q 445 536 463 536 l 231 536 q 200 548 213 536 q 188 578 188 561 l 188 885 q 175 916 188 903 q 144 928 163 928 l 87 928 q 58 916 70 928 q 45 885 45 903 l 45 435 q 58 405 45 418 q 87 393 70 393 l 223 393 q 254 380 241 393 q 266 350 266 368 l 266 43 q 279 13 266 25 q 309 0 291 0 l 366 0 q 396 13 384 0 q 409 43 409 25 l 409 350 q 421 380 409 368 q 452 393 434 393 l 587 393 q 618 405 605 393 q 630 435 630 418 l 630 885 q 618 916 630 903 q 587 928 605 928 l 530 928 q 500 916 513 928 q 488 885 488 903 l 488 578 z "},"Z":{"ha":701,"x_min":13,"x_max":655,"o":"m 623 865 q 621 907 634 887 q 585 928 609 928 l 56 928 q 25 916 38 928 q 13 885 13 903 l 13 828 q 25 798 13 810 q 56 785 38 785 l 350 785 q 387 765 374 785 q 388 723 399 744 l 45 62 q 47 20 35 41 q 83 0 59 0 l 612 0 q 643 13 630 0 q 655 43 655 25 l 655 100 q 643 130 655 118 q 612 143 630 143 l 318 143 q 281 163 294 143 q 280 205 269 184 l 623 865 z "},"[":{"ha":492,"x_min":68,"x_max":425,"o":"m 425 1102 q 412 1133 425 1120 q 382 1145 399 1145 l 111 1145 q 81 1133 93 1145 q 68 1102 68 1120 l 68 -169 q 81 -199 68 -186 q 111 -212 93 -212 l 382 -212 q 412 -199 399 -212 q 425 -169 425 -186 l 425 -112 q 412 -81 425 -94 q 382 -68 399 -68 l 254 -68 q 223 -56 236 -68 q 211 -26 211 -43 l 211 959 q 223 989 211 977 q 254 1002 236 1002 l 382 1002 q 412 1015 399 1002 q 425 1045 425 1027 l 425 1102 z "},"\\":{"ha":625,"x_min":68,"x_max":557,"o":"m 165 1061 q 191 1059 178 1065 q 208 1038 204 1053 l 553 -35 q 551 -61 557 -48 q 531 -78 545 -74 l 461 -100 q 435 -98 447 -105 q 417 -78 422 -92 l 73 995 q 75 1021 68 1008 q 95 1039 81 1034 l 165 1061 z "},"]":{"ha":492,"x_min":68,"x_max":425,"o":"m 68 1102 q 80 1133 68 1120 q 111 1145 93 1145 l 382 1145 q 412 1133 399 1145 q 425 1102 425 1120 l 425 -169 q 412 -199 425 -186 q 382 -212 399 -212 l 111 -212 q 80 -199 93 -212 q 68 -169 68 -186 l 68 -112 q 80 -81 68 -94 q 111 -68 93 -68 l 239 -68 q 269 -56 257 -68 q 282 -26 282 -43 l 282 959 q 269 989 282 977 q 239 1002 257 1002 l 111 1002 q 80 1015 93 1002 q 68 1045 68 1027 l 68 1102 z "},"_":{"ha":671,"x_min":68,"x_max":604,"o":"m 604 108 q 593 133 604 123 q 568 143 583 143 l 102 143 q 78 133 88 143 q 68 108 68 123 l 68 35 q 78 10 68 20 q 102 0 88 0 l 568 0 q 593 10 583 0 q 604 35 604 20 l 604 108 z "},"`":{"ha":257,"x_min":68,"x_max":189,"o":"m 102 972 q 78 962 88 972 q 68 938 68 952 l 68 722 q 78 697 68 707 q 102 687 88 687 l 155 687 q 179 697 169 687 q 189 722 189 707 l 189 938 q 179 962 189 952 q 155 972 169 972 l 102 972 z "},"a":{"ha":742,"x_min":59,"x_max":673,"o":"m 62 62 q 70 30 59 45 q 98 12 80 15 l 158 1 q 192 7 176 -3 q 212 35 208 18 l 350 718 q 372 736 353 736 q 395 718 391 736 l 533 35 q 552 7 536 18 q 587 1 568 -3 l 633 14 q 662 33 652 18 q 669 64 673 47 l 513 893 q 469 928 507 928 l 276 928 q 231 893 238 928 l 62 62 z "},"b":{"ha":881,"x_min":106,"x_max":749,"o":"m 363 536 q 333 523 346 536 q 321 492 321 511 l 321 435 q 333 405 321 418 q 363 393 346 393 l 564 393 q 593 380 581 393 q 606 350 606 368 l 606 186 q 593 155 606 168 q 564 143 581 143 l 292 143 q 262 155 275 143 q 250 186 250 168 l 250 743 q 262 772 250 760 q 292 785 275 785 l 564 785 q 593 772 581 785 q 606 743 606 760 l 606 578 q 593 548 606 561 q 564 536 581 536 l 363 536 m 149 928 q 119 916 132 928 q 106 885 106 903 l 106 43 q 119 13 106 25 q 149 0 132 0 l 706 0 q 736 13 724 0 q 749 43 749 25 l 749 885 q 736 916 749 903 q 706 928 724 928 l 149 928 z "},"c":{"ha":824,"x_min":106,"x_max":749,"o":"m 749 885 q 736 916 749 903 q 706 928 724 928 l 149 928 q 119 916 132 928 q 106 885 106 903 l 106 43 q 119 13 106 25 q 149 0 132 0 l 706 0 q 736 13 724 0 q 749 43 749 25 l 749 100 q 736 130 749 118 q 706 143 724 143 l 292 143 q 262 155 275 143 q 250 186 250 168 l 250 743 q 262 772 250 760 q 292 785 275 785 l 706 785 q 736 798 724 785 q 749 828 749 810 l 749 885 z "},"d":{"ha":895,"x_min":120,"x_max":762,"o":"m 163 0 q 132 12 145 0 q 120 43 120 25 l 120 100 q 132 130 120 118 q 163 143 145 143 l 577 143 q 607 155 595 143 q 620 186 620 168 l 620 743 q 607 772 620 760 q 577 785 595 785 l 306 785 q 275 772 288 785 q 263 743 263 760 l 263 257 q 250 227 263 239 q 220 214 238 214 l 163 214 q 132 227 145 214 q 120 257 120 239 l 120 885 q 132 916 120 903 q 163 928 145 928 l 720 928 q 750 916 737 928 q 762 885 762 903 l 762 43 q 750 12 762 25 q 720 0 737 0 l 163 0 z "},"e":{"ha":831,"x_min":92,"x_max":734,"o":"m 134 143 q 104 130 117 143 q 92 100 92 118 l 92 43 q 104 13 92 25 q 134 0 117 0 l 691 0 q 722 13 709 0 q 734 43 734 25 l 734 100 q 722 130 734 118 q 691 143 709 143 l 134 143 m 134 536 q 104 523 117 536 q 92 492 92 511 l 92 435 q 104 405 92 418 q 134 393 117 393 l 691 393 q 722 405 709 393 q 734 435 734 418 l 734 492 q 722 523 734 511 q 691 536 709 536 l 134 536 m 134 928 q 104 916 117 928 q 92 885 92 903 l 92 828 q 104 798 92 810 q 134 785 117 785 l 691 785 q 722 798 709 785 q 734 828 734 810 l 734 885 q 722 916 734 903 q 691 928 709 928 l 134 928 z "},"f":{"ha":807,"x_min":106,"x_max":749,"o":"m 749 885 q 736 916 749 903 q 706 928 724 928 l 149 928 q 119 916 132 928 q 106 885 106 903 l 106 43 q 119 13 106 25 q 149 0 132 0 l 206 0 q 237 13 224 0 q 250 43 250 25 l 250 350 q 262 380 250 368 q 292 393 275 393 l 680 393 q 711 405 698 393 q 723 435 723 418 l 723 492 q 711 523 723 511 q 680 536 698 536 l 292 536 q 262 548 275 536 q 250 578 250 561 l 250 743 q 262 772 250 760 q 292 785 275 785 l 706 785 q 736 798 724 785 q 749 828 749 810 l 749 885 z "},"g":{"ha":861,"x_min":106,"x_max":749,"o":"m 706 785 q 736 798 724 785 q 749 828 749 810 l 749 885 q 736 916 749 903 q 706 928 724 928 l 149 928 q 119 916 132 928 q 106 885 106 903 l 106 43 q 119 13 106 25 q 149 0 132 0 l 706 0 q 736 13 724 0 q 749 43 749 25 l 749 492 q 736 523 749 511 q 706 536 724 536 l 649 536 q 618 523 631 536 q 606 492 606 511 l 606 186 q 593 155 606 168 q 564 143 581 143 l 292 143 q 262 155 275 143 q 250 186 250 168 l 250 743 q 262 772 250 760 q 292 785 275 785 l 706 785 z "},"h":{"ha":882,"x_min":108,"x_max":750,"o":"m 608 578 q 595 548 608 561 q 565 536 583 536 l 294 536 q 263 548 276 536 q 251 578 251 561 l 251 885 q 238 916 251 903 q 208 928 226 928 l 151 928 q 120 916 133 928 q 108 885 108 903 l 108 43 q 120 13 108 25 q 151 0 133 0 l 208 0 q 238 13 226 0 q 251 43 251 25 l 251 350 q 263 380 251 368 q 294 393 276 393 l 565 393 q 595 380 583 393 q 608 350 608 368 l 608 43 q 620 13 608 25 q 650 0 633 0 l 707 0 q 738 13 725 0 q 750 43 750 25 l 750 885 q 738 916 750 903 q 707 928 725 928 l 650 928 q 620 916 633 928 q 608 885 608 903 l 608 578 z "},"i":{"ha":435,"x_min":104,"x_max":318,"o":"m 318 910 q 300 928 318 928 l 121 928 q 104 910 104 928 l 104 803 q 121 785 104 785 q 140 768 140 785 l 140 161 q 121 143 140 143 q 104 125 104 143 l 104 18 q 121 0 104 0 l 300 0 q 318 18 318 0 l 318 125 q 300 143 318 143 q 282 161 282 143 l 282 768 q 300 785 282 785 q 318 803 318 785 l 318 910 z "},"j":{"ha":568,"x_min":35,"x_max":498,"o":"m 498 885 q 486 916 498 903 q 456 928 473 928 l 184 928 q 154 916 167 928 q 142 885 142 903 l 142 828 q 154 798 142 810 q 184 785 167 785 l 206 785 q 236 772 224 785 q 249 743 249 760 l 249 186 q 236 155 249 168 q 206 143 224 143 l 77 143 q 47 130 60 143 q 35 100 35 118 l 35 43 q 47 13 35 25 q 77 0 60 0 l 349 0 q 379 13 366 0 q 391 43 391 25 l 391 743 q 404 772 391 760 q 435 785 416 785 l 456 785 q 486 798 473 785 q 498 828 498 810 l 498 885 z "},"k":{"ha":855,"x_min":109,"x_max":800,"o":"m 787 863 q 787 906 800 884 q 750 928 775 928 l 683 928 q 646 908 659 928 l 427 555 q 390 534 414 534 l 294 534 q 264 547 277 534 q 252 577 252 559 l 252 884 q 239 914 252 902 q 208 927 227 927 l 151 927 q 121 914 134 927 q 109 884 109 902 l 109 41 q 142 0 109 7 l 218 0 q 252 41 252 7 l 252 349 q 264 379 252 366 q 294 391 277 391 l 393 391 q 430 370 417 391 l 646 20 q 682 0 659 0 l 749 0 q 787 22 774 0 q 786 65 799 44 l 552 444 q 552 486 540 465 l 787 863 z "},"l":{"ha":798,"x_min":109,"x_max":751,"o":"m 252 885 q 239 916 252 903 q 208 928 227 928 l 151 928 q 121 916 134 928 q 109 885 109 903 l 109 43 q 121 13 109 25 q 151 0 134 0 l 708 0 q 739 13 726 0 q 751 43 751 25 l 751 100 q 739 130 751 118 q 708 143 726 143 l 294 143 q 264 155 277 143 q 252 186 252 168 l 252 885 z "},"m":{"ha":1010,"x_min":106,"x_max":892,"o":"m 149 928 q 119 916 132 928 q 106 885 106 903 l 106 43 q 119 13 106 25 q 149 0 132 0 l 206 0 q 237 13 224 0 q 250 43 250 25 l 250 743 q 262 772 250 760 q 292 785 275 785 l 385 785 q 415 772 403 785 q 428 743 428 760 l 428 43 q 440 13 428 25 q 471 0 453 0 l 528 0 q 558 13 545 0 q 570 43 570 25 l 570 743 q 583 772 570 760 q 613 785 595 785 l 706 785 q 736 772 724 785 q 749 743 749 760 l 749 43 q 762 13 749 25 q 792 0 774 0 l 849 0 q 879 13 867 0 q 892 43 892 25 l 892 885 q 879 916 892 903 q 849 928 867 928 l 149 928 z "},"n":{"ha":882,"x_min":109,"x_max":751,"o":"m 608 308 q 600 297 608 299 q 588 302 592 295 l 263 905 q 226 928 252 928 l 151 928 q 121 916 134 928 q 109 885 109 903 l 109 43 q 121 13 109 25 q 151 0 134 0 l 208 0 q 239 13 227 0 q 252 43 252 25 l 252 621 q 259 631 252 629 q 271 625 267 633 l 596 22 q 634 0 608 0 l 708 0 q 739 13 726 0 q 751 43 751 25 l 751 885 q 739 916 751 903 q 708 928 726 928 l 651 928 q 621 916 633 928 q 608 885 608 903 l 608 308 z "},"o":{"ha":880,"x_min":106,"x_max":749,"o":"m 481 518 q 464 536 481 536 l 391 536 q 374 518 374 536 l 374 410 q 391 393 374 393 l 464 393 q 481 410 481 393 l 481 518 m 292 143 q 262 155 275 143 q 250 186 250 168 l 250 743 q 262 772 250 760 q 292 785 275 785 l 564 785 q 593 772 581 785 q 606 743 606 760 l 606 186 q 593 155 606 168 q 564 143 581 143 l 292 143 m 149 928 q 119 916 132 928 q 106 885 106 903 l 106 43 q 119 13 106 25 q 149 0 132 0 l 706 0 q 736 13 724 0 q 749 43 749 25 l 749 885 q 736 916 749 903 q 706 928 724 928 l 149 928 z "},"p":{"ha":850,"x_min":106,"x_max":749,"o":"m 292 536 q 262 548 275 536 q 250 578 250 561 l 250 743 q 262 772 250 760 q 292 785 275 785 l 564 785 q 593 772 581 785 q 606 743 606 760 l 606 578 q 593 548 606 561 q 564 536 581 536 l 292 536 m 149 928 q 119 916 132 928 q 106 885 106 903 l 106 43 q 119 13 106 25 q 149 0 132 0 l 206 0 q 237 13 224 0 q 250 43 250 25 l 250 350 q 262 380 250 368 q 292 393 275 393 l 706 393 q 736 405 724 393 q 749 435 749 418 l 749 885 q 736 916 749 903 q 706 928 724 928 l 149 928 z "},"q":{"ha":881,"x_min":106,"x_max":749,"o":"m 731 -136 q 749 -118 749 -136 l 749 -46 q 731 -28 749 -28 l 623 -28 q 606 -46 606 -28 l 606 -118 q 623 -136 606 -136 l 731 -136 m 292 142 q 262 155 275 142 q 250 185 250 168 l 250 742 q 262 772 250 760 q 292 785 275 785 l 564 785 q 593 772 581 785 q 606 742 606 760 l 606 185 q 593 155 606 168 q 564 142 581 142 l 292 142 m 149 928 q 119 916 132 928 q 106 885 106 903 l 106 43 q 119 12 106 25 q 149 0 132 0 l 706 0 q 736 12 724 0 q 749 43 749 25 l 749 885 q 736 916 749 903 q 706 928 724 928 l 149 928 z "},"r":{"ha":843,"x_min":106,"x_max":771,"o":"m 519 785 q 549 772 536 785 q 562 743 562 760 l 562 578 q 549 548 562 561 q 519 536 536 536 l 292 536 q 262 548 275 536 q 250 578 250 561 l 250 743 q 262 772 250 760 q 292 785 275 785 l 519 785 m 747 50 q 766 76 762 59 q 762 109 771 93 l 608 376 q 608 387 605 382 q 617 393 611 393 l 662 393 q 692 405 680 393 q 705 435 705 418 l 705 885 q 692 916 705 903 q 662 928 680 928 l 149 928 q 119 916 132 928 q 106 885 106 903 l 106 43 q 119 13 106 25 q 149 0 132 0 l 206 0 q 237 13 224 0 q 250 43 250 25 l 250 350 q 262 380 250 368 q 292 393 275 393 l 428 393 q 437 387 434 393 l 638 37 q 665 17 648 22 q 697 22 682 12 l 747 50 z "},"s":{"ha":860,"x_min":106,"x_max":748,"o":"m 748 885 q 736 916 748 903 q 705 928 723 928 l 149 928 q 118 916 131 928 q 106 885 106 903 l 106 435 q 118 405 106 418 q 149 393 131 393 l 563 393 q 593 380 581 393 q 606 350 606 368 l 606 186 q 593 155 606 168 q 563 143 581 143 l 149 143 q 118 130 131 143 q 106 100 106 118 l 106 43 q 118 13 106 25 q 149 0 131 0 l 705 0 q 736 13 723 0 q 748 43 748 25 l 748 492 q 736 523 748 511 q 705 536 723 536 l 292 536 q 261 548 274 536 q 249 578 249 561 l 249 743 q 261 772 249 760 q 292 785 274 785 l 705 785 q 736 798 723 785 q 748 828 748 810 l 748 885 z "},"t":{"ha":680,"x_min":22,"x_max":664,"o":"m 664 885 q 652 916 664 903 q 621 928 639 928 l 64 928 q 34 916 47 928 q 22 885 22 903 l 22 828 q 34 798 22 810 q 64 785 47 785 l 229 785 q 259 772 246 785 q 271 743 271 760 l 271 43 q 284 13 271 25 q 315 0 296 0 l 372 0 q 401 13 389 0 q 414 43 414 25 l 414 743 q 427 772 414 760 q 457 785 439 785 l 621 785 q 652 798 639 785 q 664 828 664 810 l 664 885 z "},"u":{"ha":882,"x_min":109,"x_max":751,"o":"m 608 186 q 595 155 608 168 q 566 143 583 143 l 294 143 q 264 155 277 143 q 252 186 252 168 l 252 885 q 239 916 252 903 q 208 928 227 928 l 151 928 q 121 916 134 928 q 109 885 109 903 l 109 43 q 121 13 109 25 q 151 0 134 0 l 708 0 q 739 13 726 0 q 751 43 751 25 l 751 885 q 739 916 751 903 q 708 928 726 928 l 651 928 q 621 916 633 928 q 608 885 608 903 l 608 186 z "},"v":{"ha":742,"x_min":64,"x_max":684,"o":"m 570 930 q 528 895 536 930 l 390 210 q 368 192 387 192 q 345 210 349 192 l 209 895 q 167 930 202 930 l 109 930 q 77 914 90 930 q 67 879 64 899 l 227 35 q 271 0 234 0 l 465 0 q 509 35 502 0 l 680 878 q 671 914 684 899 q 637 930 658 930 l 570 930 z "},"w":{"ha":1026,"x_min":123,"x_max":908,"o":"m 865 0 q 895 12 883 0 q 908 43 908 25 l 908 885 q 895 916 908 903 q 865 928 883 928 l 808 928 q 778 916 790 928 q 765 885 765 903 l 765 186 q 753 155 765 168 q 722 143 740 143 l 629 143 q 600 155 612 143 q 587 186 587 168 l 587 880 q 574 910 587 897 q 544 922 562 922 l 487 922 q 456 910 469 922 q 444 880 444 897 l 444 186 q 431 155 444 168 q 401 143 419 143 l 309 143 q 278 155 291 143 q 266 186 266 168 l 266 885 q 253 916 266 903 q 222 928 241 928 l 165 928 q 136 916 148 928 q 123 885 123 903 l 123 43 q 136 12 123 25 q 165 0 148 0 l 865 0 z "},"x":{"ha":798,"x_min":58,"x_max":742,"o":"m 71 64 q 71 22 58 43 q 108 0 83 0 l 174 0 q 212 21 199 0 l 382 307 q 401 317 389 317 q 419 307 413 317 l 589 21 q 626 0 602 0 l 692 0 q 730 22 718 0 q 730 64 742 43 l 490 466 q 490 488 484 477 l 715 863 q 716 907 728 885 q 679 928 703 928 l 612 928 q 575 907 587 928 l 419 647 q 401 636 413 636 q 382 647 389 636 l 226 907 q 189 928 214 928 l 123 928 q 85 907 98 928 q 85 863 73 885 l 311 488 q 311 466 317 477 l 71 64 z "},"y":{"ha":670,"x_min":17,"x_max":658,"o":"m 541 928 q 505 908 517 928 l 347 660 q 337 655 343 655 q 328 660 332 655 l 170 908 q 134 928 157 928 l 66 928 q 29 906 41 928 q 31 862 17 884 l 259 503 q 266 479 266 492 l 266 43 q 279 13 266 25 q 309 0 291 0 l 366 0 q 396 13 384 0 q 409 43 409 25 l 409 479 q 416 503 409 492 l 644 862 q 646 906 658 884 q 608 928 633 928 l 541 928 z "},"z":{"ha":755,"x_min":56,"x_max":698,"o":"m 666 865 q 664 907 677 887 q 627 928 652 928 l 98 928 q 68 916 81 928 q 56 885 56 903 l 56 828 q 68 798 56 810 q 98 785 81 785 l 393 785 q 429 765 417 785 q 431 723 442 744 l 88 62 q 90 20 77 41 q 126 0 102 0 l 655 0 q 686 13 673 0 q 698 43 698 25 l 698 100 q 686 130 698 118 q 655 143 673 143 l 361 143 q 324 163 337 143 q 323 205 312 184 l 666 865 z "},"–":{"ha":671,"x_min":68,"x_max":604,"o":"m 604 515 q 593 540 604 530 q 568 550 583 550 l 102 550 q 78 540 88 550 q 68 515 68 530 l 68 441 q 78 417 68 427 q 102 407 88 407 l 568 407 q 593 417 583 407 q 604 441 604 427 l 604 515 z "},"—":{"ha":671,"x_min":68,"x_max":604,"o":"m 604 515 q 593 540 604 530 q 568 550 583 550 l 102 550 q 78 540 88 550 q 68 515 68 530 l 68 441 q 78 417 68 427 q 102 407 88 407 l 568 407 q 593 417 583 407 q 604 441 604 427 l 604 515 z "},"‘":{"ha":276,"x_min":153,"x_max":267,"o":"m 187 972 q 163 962 173 972 q 153 937 153 951 l 153 721 q 163 696 153 707 q 187 686 173 686 l 232 686 q 256 696 246 686 q 267 721 267 707 l 267 937 q 256 962 267 951 q 232 972 246 972 l 187 972 z "},"’":{"ha":276,"x_min":153,"x_max":267,"o":"m 187 972 q 163 962 173 972 q 153 937 153 951 l 153 721 q 163 696 153 707 q 187 686 173 686 l 232 686 q 256 696 246 686 q 267 721 267 707 l 267 937 q 256 962 267 951 q 232 972 246 972 l 187 972 z "},"“":{"ha":439,"x_min":142,"x_max":420,"o":"m 176 972 q 152 962 162 972 q 142 938 142 952 l 142 722 q 152 697 142 707 q 176 687 162 687 l 221 687 q 245 697 235 687 q 256 722 256 707 l 256 938 q 245 962 256 952 q 221 972 235 972 l 176 972 m 334 972 q 309 962 319 972 q 299 938 299 952 l 299 722 q 309 697 299 707 q 334 687 319 687 l 385 687 q 410 697 400 687 q 420 722 420 707 l 420 938 q 410 962 420 952 q 385 972 400 972 l 334 972 z "},"”":{"ha":439,"x_min":142,"x_max":420,"o":"m 176 972 q 152 962 162 972 q 142 938 142 952 l 142 722 q 152 697 142 707 q 176 687 162 687 l 221 687 q 245 697 235 687 q 256 722 256 707 l 256 938 q 245 962 256 952 q 221 972 235 972 l 176 972 m 334 972 q 309 962 319 972 q 299 938 299 952 l 299 722 q 309 697 299 707 q 334 687 319 687 l 385 687 q 410 697 400 687 q 420 722 420 707 l 420 938 q 410 962 420 952 q 385 972 400 972 l 334 972 z "},"‹":{"ha":528,"x_min":68,"x_max":460,"o":"m 408 703 q 378 715 395 715 q 347 703 360 715 l 81 436 q 68 406 68 424 q 80 376 68 388 l 347 121 q 376 109 359 109 q 407 121 394 109 l 448 161 q 460 191 460 174 q 448 221 460 209 l 282 374 q 270 404 270 387 q 283 435 270 422 l 448 602 q 460 631 460 614 q 448 662 460 649 l 408 703 z "},"›":{"ha":528,"x_min":68,"x_max":460,"o":"m 120 701 q 151 714 133 714 q 180 702 168 714 l 448 435 q 460 405 460 422 q 448 374 460 387 l 182 120 q 152 107 170 107 q 121 119 134 107 l 81 159 q 68 190 68 172 q 80 220 68 208 l 246 372 q 258 403 258 385 q 245 433 258 420 l 81 600 q 68 630 68 612 q 80 661 68 648 l 120 701 z "},"−":{"ha":671,"x_min":68,"x_max":604,"o":"m 604 515 q 593 540 604 530 q 568 550 583 550 l 102 550 q 78 540 88 550 q 68 515 68 530 l 68 441 q 78 417 68 427 q 102 407 88 407 l 568 407 q 593 417 583 407 q 604 441 604 427 l 604 515 z "},"":{"ha":728,"x_min":0,"x_max":0,"o":""},"":{"ha":733,"x_min":0,"x_max":0,"o":""}}}
